<?xml version="1.0" encoding="UTF-8"?>
<svg id="Layer_2" data-name="Layer 2" xmlns="http://www.w3.org/2000/svg" viewBox="0 0 5048.95 953.39">
  <defs>
    <style>
      .cls-1 {
        fill: #fff;
      }

      .cls-2 {
        fill: #4ac8f5;
      }
    </style>
  </defs>
  <g id="Layer_1-2" data-name="Layer 1">
    <g>
      <g>
        <path class="cls-2" d="M1030.65,397.64c10.07,17.55-2.88,39.41-23.12,39.41h-226.58c-30.71,0-52.35-30.09-42.6-59.2l43.63-130.03-96.23,108.93c-18.65,21.1-51.9,20.04-69.16-2.22L342.36,0h366.99c56.76,0,109.22,30.29,137.6,79.45l183.48,317.82,.22,.38Z"/>
        <path class="cls-2" d="M1007.63,516.52c20.13,0,33.03,21.79,23.01,39.25l-.22,.38-183.48,317.82c-28.38,49.16-80.84,79.43-137.6,79.43H342.36l274.17-354.92c17.32-22.09,50.44-23.07,69.03-2.04l96.41,109.15-43.55-129.85c-9.77-29.1,11.89-59.21,42.58-59.21h226.64Z"/>
        <path class="cls-2" d="M555.16,379.07c12.69,28.29-6.43,60.64-37.34,63.14L0,476.7c0-27.44,7.1-54.85,21.28-79.43L204.78,79.45C233.16,30.29,285.6,0,342.36,0l212.8,379.07Z"/>
        <path class="cls-2" d="M517.33,511.15c31.05,2.52,50.15,35.12,37.21,63.45l-212.18,378.8c-56.76,0-109.2-30.27-137.58-79.43L21.28,556.15C7.08,531.57,0,504.12,0,476.7l517.33,34.45Z"/>
      </g>
      <g>
        <path class="cls-1" d="M1669.44,747.28c-52.82,0-97.92-11.1-135.29-33.33-37.39-22.22-66.15-53.59-86.27-94.12-20.13-40.51-30.2-88.23-30.2-143.13s10.06-102.61,30.2-143.14c20.12-40.51,48.88-71.89,86.27-94.12,37.38-22.22,82.47-33.33,135.29-33.33s96.08,8.63,131.37,25.88c35.29,17.25,62.08,41.7,80.39,73.33,18.3,31.64,27.45,69.15,27.45,112.55v7.06h-125.49v-3.92c0-37.65-8.63-63.92-25.88-78.82-17.25-14.9-46.8-22.35-88.63-22.35-29.8,0-53.86,4.45-72.16,13.33-18.31,8.9-31.76,24.58-40.39,47.06-8.63,22.49-12.94,54.64-12.94,96.47s4.31,73.33,12.94,96.08c8.63,22.75,22.08,38.57,40.39,47.45,18.3,8.9,42.35,13.33,72.16,13.33,41.83,0,71.37-7.45,88.63-22.35,17.25-14.9,25.88-41.18,25.88-78.82v-3.92h125.49v7.06c0,43.41-9.15,80.92-27.45,112.55-18.31,31.64-45.1,56.08-80.39,73.33-35.29,17.25-79.09,25.88-131.37,25.88Z"/>
        <path class="cls-1" d="M2114.13,747.28c-33.99,0-61.96-6.8-83.92-20.39-21.96-13.59-37.92-31.89-47.84-54.9-9.94-23-14.9-48.63-14.9-76.86v-250.19h116.86v226.66c0,27.72,5.61,47.06,16.86,58.04,11.24,10.98,31.49,16.47,60.78,16.47,18.82,0,34.24-2.35,46.27-7.06,12.02-4.71,20.78-12.67,26.27-23.92,5.49-11.24,8.24-26.79,8.24-46.67h25.88v101.96h-21.96c-7.33,15.17-17,28.5-29.02,40-12.03,11.51-26.54,20.53-43.53,27.06-17,6.53-37,9.8-60,9.8Zm245.49-.9h-109.02v-118.31l-7.84-3.92V344.93h116.86v401.45Z"/>
        <path class="cls-1" d="M2603.52,747.28c-61.7,0-107.84-11.54-138.43-34.62-30.59-23.08-45.88-57.95-45.88-104.63v-2.31h112.16v16.16c0,9.23,2.35,16.42,7.06,21.54,4.71,5.13,12.41,8.59,23.14,10.39,10.71,1.8,25.49,2.69,44.31,2.69,16.2,0,28.23-.89,36.08-2.69,7.84-1.79,13.06-4.62,15.69-8.46,2.61-3.85,3.92-8.85,3.92-15,0-10.77-4.06-18.08-12.16-21.92-8.11-3.85-25.23-8.08-51.37-12.69l-59.61-10.77c-25.62-4.62-47.33-11.54-65.1-20.77-17.78-9.23-31.37-21.66-40.78-37.31-9.41-15.64-14.12-35.51-14.12-59.62,0-35.89,14.51-65.26,43.53-88.09,29.02-22.81,71.76-34.23,128.23-34.23,32.41,0,61.43,4.88,87.06,14.62,25.61,9.75,45.88,24.37,60.78,43.85,14.9,19.5,22.35,43.85,22.35,73.08v10.77h-112.16v-10.77c0-8.72-1.57-16.02-4.71-21.93-3.14-5.89-9.15-10.25-18.04-13.08-8.9-2.81-21.7-4.23-38.43-4.23-23.53,0-39.09,2.44-46.67,7.31-7.59,4.88-11.37,11.92-11.37,21.16s3.14,15.9,9.41,20c6.27,4.11,21.18,8.46,44.7,13.08l72.16,14.62c27.71,5.13,50.2,12.69,67.45,22.7,17.25,10,29.93,22.69,38.04,38.08,8.1,15.39,12.16,33.6,12.16,54.62,0,36.42-14.51,65.27-43.53,86.55-29.02,21.29-70.98,31.93-125.88,31.93Z"/>
        <path class="cls-1" d="M3310.96,747.28c-42.35,0-78.7-8.2-109.02-24.62-30.33-16.41-53.47-39.74-69.41-70.01-15.96-30.26-23.92-65.64-23.92-106.16s7.97-76.67,23.92-106.93c15.94-30.25,39.08-53.59,69.41-70.01,30.32-16.41,66.67-24.62,109.02-24.62s78.3,8.21,107.84,24.62c29.53,16.42,52.28,39.75,68.23,70.01,15.94,30.27,23.92,65.91,23.92,106.93s-7.98,75.91-23.92,106.16c-15.95,30.27-38.7,53.6-68.23,70.01-29.55,16.42-65.49,24.62-107.84,24.62Zm0-101.55c31.89,0,54.12-7.18,66.67-21.54,12.55-14.35,18.82-40.26,18.82-77.7s-6.27-64.1-18.82-78.47c-12.55-14.35-34.78-21.54-66.67-21.54s-54.25,7.19-67.06,21.54c-12.82,14.36-19.21,40.52-19.21,78.47s6.4,63.35,19.21,77.7c12.81,14.36,35.16,21.54,67.06,21.54Z"/>
        <path class="cls-1" d="M3681.14,746.38h-116.86V343.95h109.02v117.91l7.84,3.85v280.67Zm268.23,0h-117.65v-229.13c0-26.66-5.23-45.51-15.69-56.54-10.47-11.02-29.8-16.54-58.04-16.54-26.67,0-46.15,5.13-58.43,15.38-12.29,10.26-18.43,28.98-18.43,56.16l-14.9,4.62-10.98-100.01h22.75c7.32-14.87,16.73-27.95,28.23-39.23s25.61-20.12,42.35-26.54c16.73-6.41,36.34-9.62,58.82-9.62,33.98,0,61.3,6.67,81.96,20,20.65,13.34,35.81,31.42,45.49,54.23,9.67,22.83,14.51,47.83,14.51,75v252.21Zm267.45,0h-117.64v-229.13c0-26.66-5.23-45.51-15.69-56.54-10.47-11.02-29.8-16.54-58.04-16.54-26.67,0-46.02,5.13-58.04,15.38-12.03,10.26-18.04,29.5-18.04,57.7l-14.9,3.08-11.76-100.01h16.47c7.32-14.35,16.86-27.04,28.63-38.08,11.76-11.02,26.27-20,43.53-26.92,17.25-6.92,37.9-10.39,61.96-10.39,33.98,0,61.43,6.67,82.35,20,20.91,13.34,36.34,31.42,46.27,54.23,9.93,22.83,14.9,47.83,14.9,75v252.21Z"/>
        <path class="cls-1" d="M4394.07,747.28c-35.04,0-64.45-8.95-88.23-26.88-23.8-17.92-35.69-44.28-35.69-79.11,0-19.97,4.83-37.37,14.51-52.23,9.67-14.85,23.79-27,42.35-36.48,18.55-9.47,41.43-16.25,68.63-20.35l142.74-20.74v74.5l-120.78,18.43c-12.03,2.05-20.92,5.12-26.67,9.22-5.76,4.1-8.63,10.25-8.63,18.43,0,10.25,4.18,17.41,12.55,21.51,8.36,4.1,21.18,6.15,38.43,6.15,16.2,0,31.76-1.92,46.67-5.76,14.9-3.84,27.06-11,36.47-21.51,9.41-10.49,14.12-25.73,14.12-45.7l10.98,100.62h-13.33c-6.8,9.22-16.08,18.43-27.84,27.65-11.76,9.22-26.27,16.9-43.53,23.04-17.25,6.14-38.17,9.22-62.74,9.22Zm247.84-.88h-109.02v-74.39l-2.35-22.27v-149.77c0-22.53-6.02-37.12-18.04-43.78-12.03-6.65-29.8-9.98-53.33-9.98s-40.53,3.84-50.98,11.52c-10.47,7.68-15.69,21.25-15.69,40.71v8.45h-112.16v-8.45c0-30.72,7.71-57.61,23.14-80.65,15.42-23.04,36.86-40.83,64.31-53.38,27.45-12.54,59.73-18.82,96.86-18.82s71.24,6.53,97.65,19.59c26.4,13.06,46.27,31.88,59.61,56.45,13.33,24.58,20,54.28,20,89.1v235.68Z"/>
        <path class="cls-1" d="M4828.56,746.38h-116.86V344.58h109.02v118.51l7.84,3.84v279.45Zm0-248.73h-21.96v-82.18h18.82c9.93-19.45,23.92-35.97,41.96-49.54,18.04-13.56,40.91-20.35,68.63-20.35s49.8,6.02,66.27,18.05c16.47,12.04,28.36,28.42,35.69,49.15,7.31,20.74,10.98,44.16,10.98,70.27v35.33h-116.86v-20.74c0-20.99-3.66-35.33-10.98-43.01-7.33-7.68-20.39-11.52-39.22-11.52-17.78,0-31.12,3.84-40,11.52-8.9,7.68-13.33,22.02-13.33,43.01Z"/>
        <path class="cls-1" d="M3079.6,441.52v-97.25h-198.43l87.06-26.42v-58.4h-116.84l-.74,84.82h-62.81v97.25h62.74v174.78c0,46.54,12.55,80,37.65,100.39,25.1,20.39,63.26,30.59,114.51,30.59,14.12,0,28.1-.78,41.96-2.35,13.85-1.57,25.49-3.39,34.9-5.49v-98.04h-48.63c-25.1,0-41.84-2.08-50.2-6.27-8.37-4.18-12.55-14.9-12.55-32.16v-161.45h111.37Z"/>
      </g>
    </g>
  </g>
</svg>