<?xml version="1.0" encoding="utf-8"?>
<!-- Generator: Adobe Illustrator 23.0.3, SVG Export Plug-In . SVG Version: 6.00 Build 0)  -->
<svg version="1.1" id="Layer_1" xmlns="http://www.w3.org/2000/svg" xmlns:xlink="http://www.w3.org/1999/xlink" x="0px" y="0px"
	 viewBox="0 0 50 9.9" style="enable-background:new 0 0 50 9.9;" xml:space="preserve">
<style type="text/css">
	.st0{fill:#FFFFFF;}
	.st1{fill:none;}
</style>
<title>Asset 3</title>
<g>
	<g id="Layer_1-2">
		<path class="st0" d="M7.2,3.9c-0.1,0-0.2,0-0.2,0L5.6,4.8C5.5,4.9,5.5,5,5.6,5.1c0,0,0,0,0,0l1.4,1c0.1,0.1,0.2,0.1,0.2,0l1.4-1
			c0.1-0.1,0.1-0.2,0-0.3c0,0,0,0,0,0L7.2,3.9z"/>
		<path d="M19.7,7c-0.5,0.5-1.3,0.8-2,0.8c-1.4,0.1-2.7-0.9-2.8-2.4c0-0.1,0-0.3,0-0.4c-0.1-1.5,1.1-2.7,2.6-2.8c0.1,0,0.2,0,0.3,0
			c0.7,0,1.4,0.3,1.9,0.8L19,3.7c-0.3-0.3-0.8-0.5-1.3-0.5c-1-0.1-1.8,0.7-1.9,1.6c0,0.1,0,0.1,0,0.2c-0.1,0.9,0.7,1.7,1.6,1.8
			c0.1,0,0.1,0,0.2,0c0.5,0,1-0.2,1.3-0.5L19.7,7z"/>
		<path d="M20.9,3.9v2c-0.1,0.5,0.3,0.9,0.8,1c0.1,0,0.1,0,0.2,0c0.5-0.1,0.9-0.5,0.9-1v-2h0.9v3.7h-0.8l-0.1-0.5
			c-0.3,0.4-0.8,0.6-1.3,0.6C20.6,7.7,20,7,20,5.8v-2L20.9,3.9z"/>
		<path d="M27,4.9c-0.3-0.3-0.6-0.4-1-0.3c-0.4,0-0.7,0.1-0.7,0.4s0.2,0.4,0.7,0.4c0.7,0,1.6,0.2,1.6,1.2c0,0.7-0.5,1.2-1.6,1.2
			c-0.6,0-1.3-0.2-1.7-0.7l0.5-0.7C25.1,6.8,25.6,7,26,7c0.4,0,0.7-0.2,0.7-0.4S26.5,6.2,26,6.2c-0.7-0.1-1.5-0.3-1.5-1.2
			s0.9-1.2,1.6-1.2c0.5,0,1.1,0.1,1.5,0.5L27,4.9z"/>
		<path d="M29.5,2.8v1.1h1v0.8h-1v1.6c0,0.3,0.1,0.5,0.4,0.5c0,0,0.1,0,0.1,0c0.2,0,0.3,0,0.5-0.1l0.3,0.8c-0.2,0.1-0.5,0.2-0.8,0.2
			c-0.7,0.1-1.3-0.4-1.3-1c0-0.1,0-0.2,0-0.3V4.7h-0.7V3.9h0.7v-1L29.5,2.8z"/>
		<path d="M35,5.8c0.1,1.1-0.7,2-1.8,2.1c-1.1,0.1-2-0.7-2.1-1.8c0-0.1,0-0.2,0-0.3c0-1,0.8-1.9,1.8-1.9c0,0,0.1,0,0.1,0
			c1-0.1,1.9,0.7,2,1.8C35,5.6,35,5.7,35,5.8z M32,5.8c0,0.6,0.4,1,1,1s1-0.4,1-1c0-0.6-0.4-1.1-1-1.1c-0.6,0-1,0.4-1,1
			C32,5.7,32,5.7,32,5.8z"/>
		<path d="M38.1,7.6v-2c0-0.5-0.3-1-0.8-1c-0.5,0-0.8,0.4-0.8,0.9c0,0,0,0.1,0,0.1v2h-0.9V3.9h0.9l0.1,0.5c0.2-0.3,0.6-0.5,1-0.5
			c0.5,0,0.9,0.3,1.1,0.7c0.3-0.4,0.7-0.7,1.2-0.7c1.1,0,1.6,0.7,1.6,1.8v2h-0.9v-2c0-0.5-0.2-0.9-0.7-0.9c-0.5,0-0.8,0.4-0.8,0.9
			c0,0,0,0,0,0v2L38.1,7.6z"/>
		<path d="M45.4,3.9h0.9v3.7h-0.9V7.1c-0.3,0.4-0.7,0.7-1.2,0.7c-1,0.1-1.9-0.7-1.9-1.7c0-0.1,0-0.2,0-0.3c-0.1-1,0.7-1.9,1.7-1.9
			c0.1,0,0.1,0,0.2,0c0.5,0,0.9,0.2,1.2,0.6L45.4,3.9z M43.1,5.7c0,0.6,0.4,1.1,1,1.2c0.1,0,0.3,0,0.4,0c0.6-0.2,1-0.8,0.8-1.4
			c-0.1-0.4-0.4-0.7-0.8-0.8c-0.6-0.2-1.2,0.1-1.4,0.7C43.2,5.5,43.1,5.6,43.1,5.7z"/>
		<path d="M47.9,3.9L48,4.3c0.2-0.4,0.6-0.6,1-0.5c0.4,0,0.7,0.1,1,0.4l-0.4,0.8c-0.2-0.2-0.4-0.3-0.7-0.2C48.4,4.7,48,5,48,5.5
			c0,0.1,0,0.2,0,0.2v2h-0.9V3.9H47.9z"/>
		<path class="st0" d="M7.3,8.5C7.2,8.6,7,8.6,6.9,8.5L2,5.1C1.9,5,1.9,4.9,2,4.8c0,0,0,0,0,0l4.8-3.4c0.1-0.1,0.3-0.1,0.4,0
			l3.4,2.4c0.1,0.1,0.1,0.2,0,0.3c0,0,0,0,0,0L7.3,6.5C7.2,6.6,7,6.6,6.9,6.5L4.8,5.1C4.7,5,4.7,4.9,4.8,4.9c0,0,0,0,0,0l2-1.4
			c0.1-0.1,0.3-0.1,0.4,0l1.9,1.3l1-0.7L7.9,2.4l-0.1,0L7.3,2C7.2,1.9,7,1.9,6.8,2L6.3,2.4L6.2,2.4L2.8,4.8C2.8,4.9,2.7,5,2.8,5.1
			c0,0,0,0,0,0l3.3,2.3h0.1l0,0l0.6,0.4C7,8,7.2,8,7.3,7.9L8,7.4l0,0l2.5-1.8l0,0l1-0.7l0,0l1.4-1L8,0.5l0,0L7.3,0.1
			C7.2,0,7,0,6.8,0.1L6.2,0.5l0,0l0,0L0.1,4.8C0,4.9,0,5,0,5.1c0,0,0,0,0,0l6.1,4.3l0.1,0.1l0.5,0.4c0.1,0.1,0.3,0.1,0.4,0l0.6-0.4
			h0.1l5-3.5l-0.3-0.2l-0.7-0.5l-1,0.7"/>
		<line class="st1" x1="10.9" y1="5.9" x2="10.9" y2="5.9"/>
		<line class="st1" x1="11.9" y1="5.2" x2="11.9" y2="5.2"/>
	</g>
</g>
</svg>
