<svg xmlns="http://www.w3.org/2000/svg" viewBox="0 0 50 9.92"><defs><style>.cls-1{fill:#00aeef;}.cls-2{fill:#fff;}</style></defs><title>Asset 3</title><g id="Layer_2" data-name="Layer 2"><g id="Layer_1-2" data-name="Layer 1"><path class="cls-1" d="M7.16,3.87a.2.2,0,0,0-.22,0l-1.35.93a.2.2,0,0,0,0,.32L7,6.09a.18.18,0,0,0,.22,0l1.36-1a.19.19,0,0,0,0-.31Z"/><path class="cls-2" d="M19.71,7a2.8,2.8,0,0,1-2,.79A2.62,2.62,0,0,1,14.87,5a2.68,2.68,0,0,1,2.82-2.8A2.74,2.74,0,0,1,19.64,3L19,3.67a1.83,1.83,0,0,0-1.28-.5A1.74,1.74,0,0,0,15.86,5a1.71,1.71,0,0,0,1.83,1.8A1.93,1.93,0,0,0,19,6.27Z"/><path class="cls-2" d="M20.91,3.89v2a.9.9,0,0,0,1,1,1,1,0,0,0,.89-1V3.89h.92V7.64h-.83l-.06-.51a1.64,1.64,0,0,1-1.26.56C20.64,7.69,20,7,20,5.85v-2Z"/><path class="cls-2" d="M27,4.88A1.23,1.23,0,0,0,26,4.55c-.44,0-.68.13-.68.37s.22.38.69.41c.71,0,1.6.2,1.6,1.2,0,.66-.53,1.23-1.6,1.23a2.17,2.17,0,0,1-1.73-.67l.45-.66A2,2,0,0,0,26.05,7c.35,0,.68-.17.68-.44s-.22-.37-.75-.4c-.7-.05-1.54-.31-1.54-1.16S25.33,3.78,26,3.78a2,2,0,0,1,1.46.49Z"/><path class="cls-2" d="M29.54,2.83V3.9h1v.79h-1V6.31a.46.46,0,0,0,.49.53,1.24,1.24,0,0,0,.45-.11l.26.78a1.9,1.9,0,0,1-.77.16,1.2,1.2,0,0,1-1.34-1.36V4.69h-.7V3.9h.7v-1Z"/><path class="cls-2" d="M35,5.76a1.95,1.95,0,1,1-3.89,0A1.87,1.87,0,0,1,33,3.81,1.89,1.89,0,0,1,35,5.76Zm-3,0a1,1,0,1,0,2,0,1.06,1.06,0,0,0-1-1.11A1,1,0,0,0,32,5.76Z"/><path class="cls-2" d="M38.11,7.63v-2c0-.5-.26-1-.77-1a.85.85,0,0,0-.79,1v2h-.93V3.88h.86l.07.46a1.08,1.08,0,0,1,1-.52,1.12,1.12,0,0,1,1.11.7,1.36,1.36,0,0,1,1.25-.69c1.06,0,1.59.66,1.59,1.78v2h-.93v-2c0-.49-.2-.91-.7-.91a.86.86,0,0,0-.82.93v2Z"/><path class="cls-2" d="M45.39,3.89h.88V7.63H45.4l0-.55a1.44,1.44,0,0,1-1.22.66,1.81,1.81,0,0,1-1.93-2A1.82,1.82,0,0,1,44.16,3.8a1.39,1.39,0,0,1,1.2.6ZM43.14,5.75a1.1,1.1,0,0,0,1.43,1.11,1.14,1.14,0,0,0,0-2.2A1.09,1.09,0,0,0,43.14,5.75Z"/><path class="cls-2" d="M47.91,3.89l.07.43A1.12,1.12,0,0,1,49,3.79a1.39,1.39,0,0,1,1,.36l-.42.8a.92.92,0,0,0-.67-.24.86.86,0,0,0-.93,1v2h-.92V3.89Z"/><path class="cls-1" d="M7.28,8.48a.38.38,0,0,1-.43,0L2,5.1a.18.18,0,0,1,0-.28L6.85,1.44a.38.38,0,0,1,.43,0l3.44,2.41a.18.18,0,0,1,0,.28L7.28,6.54a.38.38,0,0,1-.43,0L4.8,5.1a.17.17,0,0,1,0-.28L6.85,3.38a.36.36,0,0,1,.43,0L9.18,4.7l1-.69L7.93,2.45,7.85,2.4,7.29,2a.41.41,0,0,0-.45,0l-.54.38-.1.06L2.85,4.8a.2.2,0,0,0,0,.32L6.2,7.47l.06,0h0l.59.41a.38.38,0,0,0,.45,0L8,7.43H8L10.5,5.67h0l1-.7h0l1.39-1L8,.55H8L7.29.07a.41.41,0,0,0-.45,0L6.25.48h0l0,0L.08,4.8a.2.2,0,0,0,0,.32L6.2,9.41l.1.06.54.38a.41.41,0,0,0,.45,0l.57-.4.07,0,5-3.49-.3-.2-.71-.49-1,.71"/><line class="cls-1" x1="10.9" y1="5.94" x2="10.9" y2="5.94"/><line class="cls-1" x1="11.89" y1="5.23" x2="11.89" y2="5.23"/></g></g></svg>