<svg xmlns="http://www.w3.org/2000/svg" viewBox="0 0 92.04 18.26"><g id="Layer_2" data-name="Layer 2"><g id="Layer_1-2" data-name="Layer 1"><path d="M13.18,7.13a.38.38,0,0,0-.41,0L10.29,8.86a.36.36,0,0,0,0,.58l2.53,1.78a.38.38,0,0,0,.41,0l2.49-1.75a.35.35,0,0,0,0-.58Z" style="fill:#27aae1"/><path d="M23.2,10.53l-2-1.38,2.56-1.8L14.71,1h0L13.43.13a.77.77,0,0,0-.85,0L11.5.89h0l-.09.06L.15,8.84a.37.37,0,0,0,0,.59l11.26,7.89.19.12,1,.68a.75.75,0,0,0,.85,0l1.05-.73.12-.08,9.15-6.42Zm-9.8,5.08a.68.68,0,0,1-.79,0L3.74,9.38a.31.31,0,0,1,0-.5l8.87-6.22a.68.68,0,0,1,.79,0L19.73,7.1a.31.31,0,0,1,0,.5L13.4,12a.68.68,0,0,1-.79,0L8.83,9.38a.3.3,0,0,1,0-.5l3.78-2.65a.66.66,0,0,1,.8,0l3.48,2.42,1.83-1.27L14.6,4.51l-.15-.1-1-.7a.74.74,0,0,0-.85,0l-1,.69-.18.11L5.24,8.84a.37.37,0,0,0,0,.59l6.17,4.32a.41.41,0,0,0,.11.07h0l1.08.76a.77.77,0,0,0,.85,0l1.29-.89h0l4.63-3.25.74.5Z" style="fill:#27aae1"/><polygon points="19.34 10.43 21.17 9.15 21.89 9.63 20.07 10.93 19.34 10.43" style="fill:#0f92bf"/><path d="M36.28,12.81a5.14,5.14,0,0,1-3.72,1.46,4.81,4.81,0,0,1-5.18-5,4.92,4.92,0,0,1,5.18-5.15,5,5,0,0,1,3.59,1.49L34.92,6.75a3.35,3.35,0,0,0-2.36-.92A3.2,3.2,0,0,0,29.2,9.22a3.13,3.13,0,0,0,3.36,3.31,3.57,3.57,0,0,0,2.46-1Z" style="fill:#212732"/><path d="M38.5,7.16v3.6a1.64,1.64,0,0,0,1.77,1.84,1.81,1.81,0,0,0,1.65-1.86V7.16h1.69v6.9H42.09L42,13.12a3.07,3.07,0,0,1-2.34,1c-1.64,0-2.85-1.25-2.85-3.39V7.16Z" style="fill:#212732"/><path d="M49.62,9a2.34,2.34,0,0,0-1.71-.62c-.81,0-1.25.25-1.25.69s.4.69,1.28.75c1.3.08,3,.38,3,2.21,0,1.21-1,2.26-3,2.26a4,4,0,0,1-3.19-1.23l.84-1.21a3.79,3.79,0,0,0,2.38,1c.64,0,1.24-.32,1.24-.82s-.39-.67-1.37-.73c-1.3-.1-2.85-.57-2.85-2.14S46.63,7,47.89,7a3.7,3.7,0,0,1,2.68.91Z" style="fill:#212732"/><path d="M54.38,5.21v2h1.9V8.64H54.37v3c0,.66.36,1,.89,1a1.93,1.93,0,0,0,.83-.21l.47,1.45a3.83,3.83,0,0,1-1.41.3,2.23,2.23,0,0,1-2.47-2.52v-3H51.39V7.17h1.29V5.4Z" style="fill:#212732"/><path d="M64.4,10.61a3.59,3.59,0,1,1-7.17,0A3.45,3.45,0,0,1,60.79,7,3.48,3.48,0,0,1,64.4,10.61Zm-5.46,0a1.88,1.88,0,1,0,3.74,0,1.94,1.94,0,0,0-1.87-2A1.89,1.89,0,0,0,58.94,10.61Z" style="fill:#212732"/><path d="M70.15,14V10.36c0-.91-.47-1.74-1.41-1.74a1.57,1.57,0,0,0-1.46,1.74V14H65.57V7.14h1.58l.13.84a2,2,0,0,1,1.81-1,2.06,2.06,0,0,1,2,1.29,2.5,2.5,0,0,1,2.31-1.26c2,0,2.91,1.2,2.91,3.27V14h-1.7V10.33c0-.91-.38-1.68-1.3-1.68a1.57,1.57,0,0,0-1.49,1.71V14Z" style="fill:#212732"/><path d="M83.55,7.16h1.63V14h-1.6l-.09-1a2.59,2.59,0,0,1-2.23,1.21,3.33,3.33,0,0,1-3.55-3.66A3.35,3.35,0,0,1,81.3,7a2.51,2.51,0,0,1,2.19,1.12Zm-4.14,3.43a2,2,0,0,0,2.63,2,2.09,2.09,0,0,0,0-4A2,2,0,0,0,79.41,10.59Z" style="fill:#212732"/><path d="M88.2,7.16l.13.79a2,2,0,0,1,1.94-1A2.6,2.6,0,0,1,92,7.63l-.77,1.48A1.71,1.71,0,0,0,90,8.67a1.58,1.58,0,0,0-1.71,1.74V14H86.62V7.16Z" style="fill:#212732"/></g></g></svg>