<svg height="395pt" viewBox="-11 0 395 395.62" width="395pt" xmlns="http://www.w3.org/2000/svg"><path d="m326.308594 30.949219h-50.921875v-24.949219c0-3.3125-2.6875-6-6-6s-6 2.6875-6 6v24.949219h-154.152344v-24.949219c0-3.3125-2.6875-6-6-6-3.316406 0-6 2.6875-6 6v24.949219h-50.925781c-25.390625.03125-45.96875 20.609375-46 46v272.671875c.03125 25.390625 20.609375 45.96875 46 46h280c25.394531-.03125 45.972656-20.609375 46-46v-272.671875c-.027344-25.390625-20.605469-45.96875-46-46zm0 352.671875h-280c-18.769532-.023438-33.976563-15.230469-34-34v-227.667969h348v227.667969c-.019532 18.769531-15.230469 33.976562-34 34zm34-273.667969h-348v-33c.023437-18.765625 15.230468-33.976563 34-34h50.925781v24.953125c0 3.3125 2.683594 6 6 6 3.3125 0 6-2.6875 6-6v-24.953125h154.152344v24.953125c0 3.3125 2.6875 6 6 6s6-2.6875 6-6v-24.953125h50.921875c18.769531.023437 33.980468 15.234375 34 34zm0 0"/><path d="m245.320312 215.976562c0-1.589843-.632812-3.117187-1.757812-4.242187l-19.90625-19.90625c-2.34375-2.34375-6.140625-2.34375-8.484375 0l-14.742187 14.742187-11.546876 11.542969c-5.898437 5.898438-9.285156 7.492188-17.5 11.359375l-39.792968 18.917969c-12.121094 5.75-23.160156 13.542969-32.640625 23.039063l-.007813.007812-.003906.007812-.011719.011719-31.949219 31.953125c-6.066406 6.078125-6.066406 15.921875 0 22l42.761719 42.765625c6.003907 6.207031 15.898438 6.375 22.109375.378907.046875-.046876.09375-.089844.140625-.136719l31.679688-31.679688v-.007812l.011719-.011719c9.484374-9.488281 17.277343-20.523438 23.050781-32.632812l18.933593-39.835938c3.78125-8.035156 5.691407-11.824219 11.347657-17.480469l26.542969-26.542969c1.128906-1.125 1.765624-2.652343 1.765624-4.25zm-105.351562 127.488282-48.039062-48.042969 11.21875-11.21875 47.832031 48.25zm-21.746094 16.222656-42.761718-42.765625c-1.339844-1.410156-1.339844-3.621094 0-5.03125l7.984374-7.984375 48.039063 48.039062-7.898437 7.902344c-.726563.703125-1.703126 1.082032-2.714844 1.050782-1.011719-.027344-1.964844-.464844-2.648438-1.210938zm76.601563-100.574219-18.917969 39.800781c-4.324219 9.046876-9.902344 17.433594-16.578125 24.914063l-47.5625-47.976563c7.46875-6.710937 15.871094-12.304687 24.945313-16.605468l39.792968-18.917969c8.691406-4.089844 13.480469-6.34375 20.855469-13.71875l7.308594-7.308594 11.421875 11.421875-7.554688 7.554688c-7.046875 7.046875-9.550781 12-13.710937 20.835937zm29.75-36.875-11.421875-11.421875 6.257812-6.261718 11.425782 11.421874zm0 0"/><path d="m304.902344 207.523438c-12.320313-12.292969-32.265625-12.292969-44.585938 0-2.273437 2.355468-2.238281 6.097656.074219 8.414062 2.316406 2.3125 6.058594 2.34375 8.410156.070312 7.632813-7.613281 19.984375-7.613281 27.617188 0l4.359375 4.359376c2.34375 2.339843 6.140625 2.339843 8.484375-.003907s2.34375-6.140625 0-8.484375zm0 0"/><path d="m225.460938 145.050781c7.613281 7.632813 7.613281 19.984375 0 27.617188-1.535157 1.511719-2.144532 3.730469-1.589844 5.8125.550781 2.085937 2.175781 3.710937 4.261718 4.265625 2.082032.550781 4.300782-.058594 5.8125-1.59375 12.292969-12.320313 12.292969-32.265625 0-44.585938l-4.355468-4.355468c-2.355469-2.289063-6.109375-2.265626-8.429688.054687-2.320312 2.320313-2.34375 6.078125-.054687 8.429687zm0 0"/><path d="m256.15625 191.308594c1.59375.003906 3.117188-.628906 4.242188-1.757813l28.011718-28.007812c1.550782-1.507813 2.167969-3.734375 1.617188-5.828125-.550782-2.089844-2.183594-3.726563-4.277344-4.273438-2.089844-.550781-4.316406.066406-5.824219 1.617188l-28.011719 28.007812c-1.714843 1.71875-2.230468 4.296875-1.300781 6.539063.929688 2.242187 3.117188 3.703125 5.542969 3.703125zm0 0"/><path d="m126.152344 227.6875c2.339844 2.339844 6.140625 2.339844 8.484375 0l3.128906-3.132812 3.132813 3.132812c1.503906 1.558594 3.734374 2.183594 5.832031 1.632812 2.097656-.546874 3.738281-2.183593 4.285156-4.285156.550781-2.097656-.074219-4.328125-1.632813-5.832031l-3.132812-3.132813 3.132812-3.128906c2.273438-2.355468 2.238282-6.097656-.074218-8.414062-2.316406-2.3125-6.058594-2.34375-8.410156-.070313l-3.132813 3.128907-3.128906-3.128907c-2.355469-2.273437-6.097657-2.242187-8.414063.070313-2.3125 2.316406-2.34375 6.058594-.070312 8.414062l3.128906 3.128906-3.128906 3.132813c-2.34375 2.34375-2.34375 6.140625 0 8.484375zm0 0"/><path d="m302.695312 246.386719c-2.34375-2.34375-6.140624-2.34375-8.484374 0l-3.132813 3.128906-3.128906-3.128906c-1.511719-1.535157-3.730469-2.144531-5.8125-1.59375-2.085938.554687-3.710938 2.179687-4.261719 4.265625-.554688 2.082031.054688 4.300781 1.589844 5.8125l3.128906 3.128906-3.128906 3.132812c-2.308594 2.347657-2.296875 6.117188.035156 8.449219 2.328125 2.328125 6.101562 2.34375 8.449219.035157l3.128906-3.132813 3.132813 3.132813c2.347656 2.308593 6.121093 2.292968 8.449218-.035157 2.332032-2.332031 2.34375-6.101562.035156-8.449219l-3.132812-3.132812 3.132812-3.128906c2.34375-2.34375 2.34375-6.140625 0-8.484375zm0 0"/><path d="m85.296875 215.109375c8.835937 0 16-7.164063 16-16s-7.164063-16-16-16c-8.839844 0-16 7.164063-16 16 .007813 8.832031 7.164063 15.992187 16 16zm0-20c2.207031 0 4 1.792969 4 4 0 2.210937-1.792969 4-4 4-2.210937 0-4-1.789063-4-4 0-2.207031 1.789063-4 4-4zm0 0"/><path d="m242.816406 272.320312c-8.835937 0-16 7.164063-16 16 0 8.835938 7.164063 16 16 16 8.839844 0 16-7.164062 16-16-.007812-8.832031-7.164062-15.988281-16-16zm0 20c-2.207031 0-4-1.789062-4-4 0-2.207031 1.792969-4 4-4 2.210938 0 4 1.792969 4 4 0 2.210938-1.789062 4-4 4zm0 0"/><path d="m175.804688 181.371094c8.835937 0 16-7.160156 16-16 0-8.835938-7.164063-16-16-16-8.835938 0-16 7.164062-16 16 .007812 8.835937 7.167968 15.992187 16 16zm0-20c2.207031 0 4 1.792968 4 4 0 2.210937-1.792969 4-4 4-2.210938 0-4-1.789063-4-4 0-2.207032 1.789062-4 4-4zm0 0"/></svg>